<?xml version="1.0" encoding="UTF-8" standalone="no"?>
<!-- Created with Inkscape (http://www.inkscape.org/) -->

<svg
   xmlns:dc="http://purl.org/dc/elements/1.1/"
   xmlns:cc="http://creativecommons.org/ns#"
   xmlns:rdf="http://www.w3.org/1999/02/22-rdf-syntax-ns#"
   xmlns:svg="http://www.w3.org/2000/svg"
   xmlns="http://www.w3.org/2000/svg"
   xmlns:sodipodi="http://sodipodi.sourceforge.net/DTD/sodipodi-0.dtd"
   xmlns:inkscape="http://www.inkscape.org/namespaces/inkscape"
   width="585.38721mm"
   height="401.20358mm"
   viewBox="0 0 585.38721 401.20358"
   version="1.1"
   id="svg8"
   inkscape:version="0.92.2 5c3e80d, 2017-08-06"
   sodipodi:docname="Logo_2.svg">
  <defs
     id="defs2">
    <inkscape:path-effect
       effect="skeletal"
       id="path-effect345"
       is_visible="true"
       pattern="m 32.935259,29.023366 c 0,-2.76 2.24,-5 5,-5 2.76,0 5,2.24 5,5 0,2.759999 -2.24,4.999999 -5,4.999999 -2.76,0 -5,-2.24 -5,-4.999999 z"
       copytype="single_stretched"
       prop_scale="0.26458333"
       scale_y_rel="false"
       spacing="0"
       normal_offset="0"
       tang_offset="0"
       prop_units="false"
       vertical_pattern="false"
       fuse_tolerance="0" />
    <inkscape:path-effect
       fuse_tolerance="0"
       vertical_pattern="false"
       prop_units="false"
       tang_offset="0"
       normal_offset="0"
       spacing="0"
       scale_y_rel="false"
       prop_scale="0.26458333"
       copytype="single_stretched"
       pattern="m 328.22959,148.60249 c 0,-2.76 2.24,-5 5,-5 2.76,0 5,2.24 5,5 0,2.76 -2.24,5 -5,5 -2.76,0 -5,-2.24 -5,-5 z"
       is_visible="true"
       id="path-effect329"
       effect="skeletal" />
    <inkscape:path-effect
       fuse_tolerance="0"
       vertical_pattern="false"
       prop_units="false"
       tang_offset="0"
       normal_offset="0"
       spacing="0"
       scale_y_rel="false"
       prop_scale="0.26458333"
       copytype="single_stretched"
       pattern="m 328.22959,148.60249 c 0,-2.76 2.24,-5 5,-5 2.76,0 5,2.24 5,5 0,2.76 -2.24,5 -5,5 -2.76,0 -5,-2.24 -5,-5 z"
       is_visible="true"
       id="path-effect325"
       effect="skeletal" />
    <inkscape:path-effect
       fuse_tolerance="0"
       vertical_pattern="false"
       prop_units="false"
       tang_offset="0"
       normal_offset="0"
       spacing="0"
       scale_y_rel="false"
       prop_scale="0.17807269"
       copytype="single_stretched"
       pattern="m -35.090539,109.45544 c 0,-2.76 2.24,-5 5,-5 2.76,0 5,2.24 5,5 0,2.76 -2.24,5 -5,5 -2.76,0 -5,-2.24 -5,-5 z"
       is_visible="true"
       id="path-effect321"
       effect="skeletal" />
    <inkscape:path-effect
       fuse_tolerance="0"
       vertical_pattern="false"
       prop_units="false"
       tang_offset="0"
       normal_offset="0"
       spacing="0"
       scale_y_rel="false"
       prop_scale="0.21087552"
       copytype="single_stretched"
       pattern="m 2.135812,111.93949 c 0,-2.76 2.24,-5 5,-5 2.76,0 5,2.24 5,5 0,2.76 -2.24,5 -5,5 -2.76,0 -5,-2.24 -5,-5 z"
       is_visible="true"
       id="path-effect317"
       effect="skeletal" />
    <inkscape:path-effect
       effect="skeletal"
       id="path-effect313"
       is_visible="true"
       pattern="m 6.7696185,10.451944 c 0,-2.7599996 2.24,-4.9999996 5.0000005,-4.9999996 2.76,0 5,2.24 5,4.9999996 0,2.76 -2.24,5 -5,5 -2.7600005,0 -5.0000005,-2.24 -5.0000005,-5 z"
       copytype="single_stretched"
       prop_scale="0.26458333"
       scale_y_rel="false"
       spacing="0"
       normal_offset="0"
       tang_offset="0"
       prop_units="false"
       vertical_pattern="false"
       fuse_tolerance="0" />
    <inkscape:path-effect
       effect="skeletal"
       id="path-effect269"
       is_visible="true"
       pattern="m 6.7696185,10.451944 c 0,-2.7599996 2.24,-4.9999996 5.0000005,-4.9999996 2.76,0 5,2.24 5,4.9999996 0,2.76 -2.24,5 -5,5 -2.7600005,0 -5.0000005,-2.24 -5.0000005,-5 z"
       copytype="single_stretched"
       prop_scale="0.26458333"
       scale_y_rel="false"
       spacing="0"
       normal_offset="0"
       tang_offset="0"
       prop_units="false"
       vertical_pattern="false"
       fuse_tolerance="0" />
    <inkscape:path-effect
       effect="skeletal"
       id="path-effect265"
       is_visible="true"
       pattern="m -37.261993,3.904059 c 0,-2.76 2.24,-5 5,-5 2.76,0 5,2.24 5,5 0,2.76 -2.24,5 -5,5 -2.76,0 -5,-2.24 -5,-5 z"
       copytype="single_stretched"
       prop_scale="0.22342595"
       scale_y_rel="false"
       spacing="0"
       normal_offset="0"
       tang_offset="0"
       prop_units="false"
       vertical_pattern="false"
       fuse_tolerance="0" />
    <inkscape:path-effect
       effect="skeletal"
       id="path-effect257"
       is_visible="true"
       pattern="M 0,5 C 0,2.24 2.24,0 5,0 7.76,0 10,2.24 10,5 10,7.76 7.76,10 5,10 2.24,10 0,7.76 0,5 Z"
       copytype="single_stretched"
       prop_scale="0.26458333"
       scale_y_rel="false"
       spacing="0"
       normal_offset="0"
       tang_offset="0"
       prop_units="false"
       vertical_pattern="false"
       fuse_tolerance="0" />
    <inkscape:path-effect
       effect="skeletal"
       id="path-effect253"
       is_visible="true"
       pattern="M 0,5 C 0,2.24 2.24,0 5,0 7.76,0 10,2.24 10,5 10,7.76 7.76,10 5,10 2.24,10 0,7.76 0,5 Z"
       copytype="single_stretched"
       prop_scale="0.26458333"
       scale_y_rel="false"
       spacing="0"
       normal_offset="0"
       tang_offset="0"
       prop_units="false"
       vertical_pattern="false"
       fuse_tolerance="0" />
    <inkscape:path-effect
       effect="skeletal"
       id="path-effect248"
       is_visible="true"
       pattern="M 0,5 C 0,2.24 2.24,0 5,0 7.76,0 10,2.24 10,5 10,7.76 7.76,10 5,10 2.24,10 0,7.76 0,5 Z"
       copytype="single_stretched"
       prop_scale="0.26458333"
       scale_y_rel="false"
       spacing="0"
       normal_offset="0"
       tang_offset="0"
       prop_units="false"
       vertical_pattern="false"
       fuse_tolerance="0" />
    <inkscape:path-effect
       effect="skeletal"
       id="path-effect240"
       is_visible="true"
       pattern="M 0,5 C 0,2.24 2.24,0 5,0 7.76,0 10,2.24 10,5 10,7.76 7.76,10 5,10 2.24,10 0,7.76 0,5 Z"
       copytype="single_stretched"
       prop_scale="0.26458333"
       scale_y_rel="false"
       spacing="0"
       normal_offset="0"
       tang_offset="0"
       prop_units="false"
       vertical_pattern="false"
       fuse_tolerance="0" />
    <inkscape:path-effect
       effect="skeletal"
       id="path-effect236"
       is_visible="true"
       pattern="M 0,5 C 0,2.24 2.24,0 5,0 7.76,0 10,2.24 10,5 10,7.76 7.76,10 5,10 2.24,10 0,7.76 0,5 Z"
       copytype="single_stretched"
       prop_scale="0.26458333"
       scale_y_rel="false"
       spacing="0"
       normal_offset="0"
       tang_offset="0"
       prop_units="false"
       vertical_pattern="false"
       fuse_tolerance="0" />
    <inkscape:path-effect
       effect="skeletal"
       id="path-effect232"
       is_visible="true"
       pattern="M 0,5 C 0,2.24 2.24,0 5,0 7.76,0 10,2.24 10,5 10,7.76 7.76,10 5,10 2.24,10 0,7.76 0,5 Z"
       copytype="single_stretched"
       prop_scale="0.26458333"
       scale_y_rel="false"
       spacing="0"
       normal_offset="0"
       tang_offset="0"
       prop_units="false"
       vertical_pattern="false"
       fuse_tolerance="0" />
    <inkscape:path-effect
       effect="skeletal"
       id="path-effect224"
       is_visible="true"
       pattern="M 0,5 C 0,2.24 2.24,0 5,0 7.76,0 10,2.24 10,5 10,7.76 7.76,10 5,10 2.24,10 0,7.76 0,5 Z"
       copytype="single_stretched"
       prop_scale="0.26458333"
       scale_y_rel="false"
       spacing="0"
       normal_offset="0"
       tang_offset="0"
       prop_units="false"
       vertical_pattern="false"
       fuse_tolerance="0" />
    <inkscape:path-effect
       effect="skeletal"
       id="path-effect220"
       is_visible="true"
       pattern="M 0,5 C 0,2.24 2.24,0 5,0 7.76,0 10,2.24 10,5 10,7.76 7.76,10 5,10 2.24,10 0,7.76 0,5 Z"
       copytype="single_stretched"
       prop_scale="0.26458333"
       scale_y_rel="false"
       spacing="0"
       normal_offset="0"
       tang_offset="0"
       prop_units="false"
       vertical_pattern="false"
       fuse_tolerance="0" />
    <inkscape:path-effect
       effect="skeletal"
       id="path-effect216"
       is_visible="true"
       pattern="M 0,5 C 0,2.24 2.24,0 5,0 7.76,0 10,2.24 10,5 10,7.76 7.76,10 5,10 2.24,10 0,7.76 0,5 Z"
       copytype="single_stretched"
       prop_scale="0.26458333"
       scale_y_rel="false"
       spacing="0"
       normal_offset="0"
       tang_offset="0"
       prop_units="false"
       vertical_pattern="false"
       fuse_tolerance="0" />
    <inkscape:path-effect
       fuse_tolerance="0"
       vertical_pattern="false"
       prop_units="false"
       tang_offset="0"
       normal_offset="0"
       spacing="0"
       scale_y_rel="false"
       prop_scale="0.26458333"
       copytype="single_stretched"
       pattern="m 330.97417,2.8081181 c 0,-2.76000001 2.24,-5 5,-5 2.76,0 5,2.23999999 5,5 0,2.76 -2.24,5 -5,5 -2.76,0 -5,-2.24 -5,-5 z"
       is_visible="true"
       id="path-effect212"
       effect="skeletal" />
    <inkscape:path-effect
       only_selected="false"
       apply_with_weight="true"
       apply_no_weight="true"
       helper_size="0"
       steps="2"
       weight="33.333333"
       is_visible="true"
       id="path-effect210"
       effect="bspline" />
    <inkscape:path-effect
       fuse_tolerance="0"
       vertical_pattern="false"
       prop_units="false"
       tang_offset="0"
       normal_offset="0"
       spacing="0"
       scale_y_rel="false"
       prop_scale="0.26458333"
       copytype="single_stretched"
       pattern="m 328.78228,37.878229 c 0,-2.76 2.24,-5 5,-5 2.76,0 5,2.24 5,5 0,2.76 -2.24,5 -5,5 -2.76,0 -5,-2.24 -5,-5 z"
       is_visible="true"
       id="path-effect206"
       effect="skeletal" />
    <inkscape:path-effect
       only_selected="false"
       apply_with_weight="true"
       apply_no_weight="true"
       helper_size="0"
       steps="2"
       weight="33.333333"
       is_visible="true"
       id="path-effect204"
       effect="bspline" />
    <inkscape:path-effect
       fuse_tolerance="0"
       vertical_pattern="false"
       prop_units="false"
       tang_offset="0"
       normal_offset="0"
       spacing="0"
       scale_y_rel="false"
       prop_scale="0.26458333"
       copytype="single_stretched"
       pattern="m 328.78228,37.878229 c 0,-2.76 2.24,-5 5,-5 2.76,0 5,2.24 5,5 0,2.76 -2.24,5 -5,5 -2.76,0 -5,-2.24 -5,-5 z"
       is_visible="true"
       id="path-effect200"
       effect="skeletal" />
    <inkscape:path-effect
       only_selected="false"
       apply_with_weight="true"
       apply_no_weight="true"
       helper_size="0"
       steps="2"
       weight="33.333333"
       is_visible="true"
       id="path-effect198"
       effect="bspline" />
    <inkscape:path-effect
       effect="skeletal"
       id="path-effect194"
       is_visible="true"
       pattern="m 455.8167,-105.06999 c 0,-2.76 2.24,-5 5,-5 2.76,0 5,2.24 5,5 0,2.76 -2.24,5.00001 -5,5.00001 -2.76,0 -5,-2.24001 -5,-5.00001 z"
       copytype="single_stretched"
       prop_scale="0.26458333"
       scale_y_rel="false"
       spacing="0"
       normal_offset="0"
       tang_offset="0"
       prop_units="false"
       vertical_pattern="false"
       fuse_tolerance="0" />
    <inkscape:path-effect
       effect="bspline"
       id="path-effect192"
       is_visible="true"
       weight="33.333333"
       steps="2"
       helper_size="0"
       apply_no_weight="true"
       apply_with_weight="true"
       only_selected="false" />
    <inkscape:path-effect
       fuse_tolerance="0"
       vertical_pattern="false"
       prop_units="false"
       tang_offset="0"
       normal_offset="0"
       spacing="0"
       scale_y_rel="false"
       prop_scale="0.26458333"
       copytype="single_stretched"
       pattern="m 345.2214,20.343173 c 0,-2.76 2.24,-5 5,-5 2.76,0 5,2.24 5,5 0,2.76 -2.24,5 -5,5 -2.76,0 -5,-2.24 -5,-5 z"
       is_visible="true"
       id="path-effect188"
       effect="skeletal" />
    <inkscape:path-effect
       only_selected="false"
       apply_with_weight="true"
       apply_no_weight="true"
       helper_size="0"
       steps="2"
       weight="33.333333"
       is_visible="true"
       id="path-effect186"
       effect="bspline" />
    <inkscape:path-effect
       fuse_tolerance="0"
       vertical_pattern="false"
       prop_units="false"
       tang_offset="0"
       normal_offset="0"
       spacing="0"
       scale_y_rel="false"
       prop_scale="0.26458333"
       copytype="single_stretched"
       pattern="m 146.25589,-285.89636 c 0,-2.76 2.24,-5 5,-5 2.76,0 5,2.24 5,5 0,2.76 -2.24,5 -5,5 -2.76,0 -5,-2.24 -5,-5 z"
       is_visible="true"
       id="path-effect182"
       effect="skeletal" />
    <inkscape:path-effect
       is_visible="true"
       id="path-effect180"
       effect="spiro" />
    <inkscape:path-effect
       effect="skeletal"
       id="path-effect166"
       is_visible="true"
       pattern="M 0,5 C 0,2.24 2.24,0 5,0 7.76,0 10,2.24 10,5 10,7.76 7.76,10 5,10 2.24,10 0,7.76 0,5 Z"
       copytype="single_stretched"
       prop_scale="0.26458333"
       scale_y_rel="false"
       spacing="0"
       normal_offset="0"
       tang_offset="0"
       prop_units="false"
       vertical_pattern="false"
       fuse_tolerance="0" />
    <inkscape:path-effect
       effect="bspline"
       id="path-effect164"
       is_visible="true"
       weight="33.333333"
       steps="2"
       helper_size="0"
       apply_no_weight="true"
       apply_with_weight="true"
       only_selected="false" />
    <inkscape:path-effect
       effect="skeletal"
       id="path-effect150"
       is_visible="true"
       pattern="m -2.1918819,40.070111 c 0,-2.76 2.23999998,-5 5,-5 2.76,0 5,2.24 5,5 0,2.76 -2.24,5 -5,5 -2.76000002,0 -5,-2.24 -5,-5 z"
       copytype="single_stretched"
       prop_scale="0.26458333"
       scale_y_rel="false"
       spacing="0"
       normal_offset="0"
       tang_offset="0"
       prop_units="false"
       vertical_pattern="false"
       fuse_tolerance="0" />
    <inkscape:path-effect
       effect="bspline"
       id="path-effect148"
       is_visible="true"
       weight="33.333333"
       steps="2"
       helper_size="0"
       apply_no_weight="true"
       apply_with_weight="true"
       only_selected="false" />
    <inkscape:path-effect
       effect="skeletal"
       id="path-effect144"
       is_visible="true"
       pattern="m -2.1918819,40.070111 c 0,-2.76 2.23999998,-5 5,-5 2.76,0 5,2.24 5,5 0,2.76 -2.24,5 -5,5 -2.76000002,0 -5,-2.24 -5,-5 z"
       copytype="single_stretched"
       prop_scale="0.26458333"
       scale_y_rel="false"
       spacing="0"
       normal_offset="0"
       tang_offset="0"
       prop_units="false"
       vertical_pattern="false"
       fuse_tolerance="0" />
    <inkscape:path-effect
       effect="bspline"
       id="path-effect142"
       is_visible="true"
       weight="33.333333"
       steps="2"
       helper_size="0"
       apply_no_weight="true"
       apply_with_weight="true"
       only_selected="false" />
    <inkscape:path-effect
       fuse_tolerance="0"
       vertical_pattern="false"
       prop_units="false"
       tang_offset="0"
       normal_offset="0"
       spacing="0"
       scale_y_rel="false"
       prop_scale="0.26458333"
       copytype="single_stretched"
       pattern="m 124.84253,-102.8781 c 0,-2.76 2.24,-5 5,-5 2.76,0 5,2.24 5,5 0,2.76 -2.24,5.000004 -5,5.000004 -2.76,0 -5,-2.240004 -5,-5.000004 z"
       is_visible="true"
       id="path-effect132"
       effect="skeletal" />
    <inkscape:path-effect
       only_selected="false"
       apply_with_weight="true"
       apply_no_weight="true"
       helper_size="0"
       steps="2"
       weight="33.333333"
       is_visible="true"
       id="path-effect130"
       effect="bspline" />
    <inkscape:path-effect
       effect="skeletal"
       id="path-effect126"
       is_visible="true"
       pattern="m 14.247232,22.535055 c 0,-2.76 2.24,-5 5,-5 2.76,0 5,2.24 5,5 0,2.76 -2.24,5 -5,5 -2.76,0 -5,-2.24 -5,-5 z"
       copytype="single_stretched"
       prop_scale="0.26458333"
       scale_y_rel="false"
       spacing="0"
       normal_offset="0"
       tang_offset="0"
       prop_units="false"
       vertical_pattern="false"
       fuse_tolerance="0" />
    <inkscape:path-effect
       effect="bspline"
       id="path-effect124"
       is_visible="true"
       weight="33.333333"
       steps="2"
       helper_size="0"
       apply_no_weight="true"
       apply_with_weight="true"
       only_selected="false" />
    <inkscape:path-effect
       effect="skeletal"
       id="path-effect55"
       is_visible="true"
       pattern="m -184.71828,-283.70447 c 0,-2.76 2.24,-5 5,-5 2.76,0 5,2.24 5,5 0,2.76 -2.24,5 -5,5 -2.76,0 -5,-2.24 -5,-5 z"
       copytype="single_stretched"
       prop_scale="0.26458333"
       scale_y_rel="false"
       spacing="0"
       normal_offset="0"
       tang_offset="0"
       prop_units="false"
       vertical_pattern="false"
       fuse_tolerance="0" />
    <inkscape:path-effect
       effect="spiro"
       id="path-effect53"
       is_visible="true" />
    <inkscape:path-effect
       effect="skeletal"
       id="path-effect42"
       is_visible="true"
       pattern="M 0,5 C 0,2.24 2.24,0 5,0 7.76,0 10,2.24 10,5 10,7.76 7.76,10 5,10 2.24,10 0,7.76 0,5 Z"
       copytype="single_stretched"
       prop_scale="0.26458333"
       scale_y_rel="false"
       spacing="0"
       normal_offset="0"
       tang_offset="0"
       prop_units="false"
       vertical_pattern="false"
       fuse_tolerance="0" />
    <inkscape:path-effect
       effect="spiro"
       id="path-effect40"
       is_visible="true" />
    <inkscape:path-effect
       fuse_tolerance="0"
       vertical_pattern="false"
       prop_units="false"
       tang_offset="0"
       normal_offset="0"
       spacing="0"
       scale_y_rel="false"
       prop_scale="0.26458333"
       copytype="single_stretched"
       pattern="m 123.97619,85.886904 c 0,-2.76 2.24,-5 5,-5 2.76001,0 5.00001,2.24 5.00001,5 0,2.760001 -2.24,5.000001 -5.00001,5.000001 -2.76,0 -5,-2.24 -5,-5.000001 z"
       is_visible="true"
       id="path-effect30"
       effect="skeletal" />
    <inkscape:path-effect
       effect="skeletal"
       id="path-effect26"
       is_visible="true"
       pattern="m 6.8035717,18.607143 c 0,-2.76 2.24,-5 5.0000003,-5 2.76,0 5,2.24 5,5 0,2.76 -2.24,4.999999 -5,4.999999 -2.7600003,0 -5.0000003,-2.239999 -5.0000003,-4.999999 z"
       copytype="single_stretched"
       prop_scale="0.26458333"
       scale_y_rel="false"
       spacing="0"
       normal_offset="0"
       tang_offset="0"
       prop_units="false"
       vertical_pattern="false"
       fuse_tolerance="0" />
  </defs>
  <sodipodi:namedview
     id="base"
     pagecolor="#ffffff"
     bordercolor="#666666"
     borderopacity="1.0"
     inkscape:pageopacity="0.0"
     inkscape:pageshadow="2"
     inkscape:zoom="0.68284216"
     inkscape:cx="1608.3665"
     inkscape:cy="881.75425"
     inkscape:document-units="mm"
     inkscape:current-layer="layer1"
     showgrid="false"
     inkscape:window-width="1222"
     inkscape:window-height="756"
     inkscape:window-x="0"
     inkscape:window-y="0"
     inkscape:window-maximized="1" />
  <metadata
     id="metadata5">
    <rdf:RDF>
      <cc:Work
         rdf:about="">
        <dc:format>image/svg+xml</dc:format>
        <dc:type
           rdf:resource="http://purl.org/dc/dcmitype/StillImage" />
        <dc:title />
      </cc:Work>
    </rdf:RDF>
  </metadata>
  <g
     inkscape:label="Ebene 1"
     inkscape:groupmode="layer"
     id="layer1"
     transform="translate(221.5348,327.50486)">
    <path
       style="fill:#000000;stroke:none;stroke-width:0.26458332px;stroke-linecap:butt;stroke-linejoin:miter;stroke-opacity:1"
       d="m -118.95043,-197.32352 c 0.001,0.006 -2.59047,1.62182 -7.48563,0.21416 0,0 0,0 0,0 -2.10613,-0.60639 -4.52372,-1.83914 -6.60248,-3.99401 -1.68043,-1.74345 -3.09835,-4.06656 -3.81317,-6.82511 -0.63235,-2.44525 -0.69009,-5.17926 0.0201,-7.87659 0.68001,-2.57026 2.05226,-5.02714 4.02979,-7.03473 0.84635,-0.85922 1.78101,-1.61259 2.78152,-2.24533 3.54006,-2.23056 7.66587,-2.837 11.2764,-2.16959 4.59898,0.85756 8.04026,3.62709 9.99438,6.49988 0,0 10e-6,1e-5 10e-6,1e-5 4.71657,6.95486 1.40901,11.26599 1.89429,11.33608 -0.37175,-0.0537 0.60058,-5.07437 -3.44011,-10.21185 0,0 -1e-5,0 -1e-5,0 -1.86642,-2.3809 -4.97809,-4.61757 -8.86168,-5.2141 -3.04222,-0.47312 -6.53644,0.11384 -9.44986,1.98395 -0.82594,0.52784 -1.60229,1.15864 -2.30911,1.87728 -1.65073,1.67831 -2.82358,3.73199 -3.41522,5.85578 -0.6267,2.23759 -0.63541,4.55023 -0.16747,6.62664 0.52698,2.34469 1.65275,4.3924 3.0171,5.97044 1.68791,1.95426 3.7277,3.20051 5.55197,3.92104 0,0 0,1e-5 0,1e-5 4.04747,1.60034 6.9267,0.9939 6.97915,1.28604 z"
       id="path51"
       inkscape:connector-curvature="0"
       inkscape:path-effect="#path-effect53;#path-effect55"
       inkscape:original-d="m -118.95043,-197.32352 c -5.54338,-6.04788 -11.08703,-12.0955 -16.63095,-18.14286 -5.54392,-6.04735 11.08757,-7.05582 16.63095,-10.58333 5.54339,-3.52751 8.06376,11.08704 12.09524,16.63095" />
    <path
       style="fill:#000000;stroke:none;stroke-width:0.26458332px;stroke-linecap:butt;stroke-linejoin:miter;stroke-opacity:1"
       d="m -221.52833,-87.629105 c -0.24793,-0.360757 6.64806,-5.279659 17.67508,-13.429875 10.4469,-7.72143 26.7255,-19.88501 40.5628,-34.38074 3e-5,-4e-5 0.22664,-0.23741 0.22667,-0.23744 13.86924,-14.55304 25.35698,-31.44616 32.6422,-42.26518 7.69471,-11.42713 12.34188,-18.56253 12.71285,-18.33026 0.24648,0.15431 -3.83131,7.63704 -11.14031,19.34987 -6.98608,11.19535 -18.1421,28.18944 -32.29881,43.06988 3e-5,-3e-5 -0.22977,0.24107 -0.22975,0.24104 -14.15359,14.79572 -30.55691,26.63872 -41.39037,34.076132 -11.33021,7.778441 -18.59679,12.144587 -18.76036,11.906573 z"
       id="path122"
       inkscape:connector-curvature="0"
       inkscape:path-effect="#path-effect124;#path-effect126"
       inkscape:original-d="m -221.52833,-87.629105 c 20.94563,-14.394975 41.89107,-28.789635 62.83634,-43.183955 13.66108,-21.81989 27.32235,-43.64002 40.98326,-65.45954" />
    <path
       inkscape:original-d="m -106.85519,-209.41875 c 19.845945,-15.87682 39.691729,-31.7533 59.537361,-47.62943 12.04186,-22.7536 24.083896,-45.50746 36.12561,-68.26067"
       inkscape:path-effect="#path-effect130;#path-effect132"
       inkscape:connector-curvature="0"
       id="path128"
       d="m -106.85519,-209.41875 c -0.27345,-0.34182 6.24745,-5.74812 16.654043,-14.67695 9.859106,-8.45909 25.212238,-21.77176 37.961276,-37.23329 2.8e-5,-4e-5 0.208818,-0.25323 0.208846,-0.25326 12.776736,-15.521 23.008466,-33.20313 29.489475,-44.52223 6.845296,-11.95533 10.962483,-19.40911 11.349332,-19.20437 0.257029,0.13602 -3.267079,7.8949 -9.706954,20.10719 -6.155354,11.67274 -16.048905,29.43149 -29.088605,45.2999 2.3e-5,-3e-5 -0.211671,0.2571 -0.211648,0.25707 -13.042741,15.78368 -28.543518,28.78566 -38.808776,36.98953 -10.735951,8.58004 -17.666579,13.46193 -17.846989,13.23641 z"
       style="fill:#000000;stroke:none;stroke-width:0.26458332px;stroke-linecap:butt;stroke-linejoin:miter;stroke-opacity:1" />
    <path
       style="fill:#000000;stroke:none;stroke-width:0.26458332px;stroke-linecap:butt;stroke-linejoin:miter;stroke-opacity:1"
       d="m -103.56642,-149.59594 c -0.36516,0.0696 5.531439,17.96978 8.360405,46.73277 1.469032,14.946528 1.712612,32.822663 -1.312839,51.926293 -0.821257,5.175067 -1.843814,10.395407 -3.05524,15.686227 -3.621956,15.818666 -8.664266,31.0237648 -13.362476,44.1247898 -6.57934,18.3549422 -13.87028,35.9615952 -18.29332,46.3886232 -4.76607,11.235686 -7.71706,17.714132 -7.95461,17.617316 -0.26473,-0.107892 2.21942,-6.778165 6.5944,-18.166889 3.82502,-9.957084 11.20974,-28.911711 17.36557,-46.6461971 4.54158,-13.090009 9.49134,-28.2694339 13.07346,-43.9078039 1.20006,-5.239043 2.2189,-10.399243 3.044435,-15.510363 3.046015,-18.820001 2.974844,-36.490848 1.769461,-51.320586 -2.315768,-28.51351 -6.661036,-46.84193 -6.229246,-46.92418 z"
       id="path140"
       inkscape:connector-curvature="0"
       inkscape:path-effect="#path-effect142;#path-effect144"
       inkscape:original-d="m -103.56642,-149.59594 c 5.845285,30.68608 11.690301,61.372431 17.535055,92.059041 -17.717565,43.472354 -35.435155,86.944383 -53.153135,130.416973" />
    <path
       style="fill:#000000;stroke:none;stroke-width:0.26458332px;stroke-linecap:butt;stroke-linejoin:miter;stroke-opacity:1"
       d="m -75.619926,-56.440958 c 0.33128,0.172266 -3.110651,7.465026 -8.887195,19.136816 -5.77623,11.671157 -13.902378,27.7089747 -22.635999,45.5211381 0.005,-0.00938 -1.55703,3.1819179 -1.55243,3.1725369 0,0 0,5e-6 0,5e-6 -16.68864,34.173791 -29.29504,61.781507 -29.94098,61.49054 -0.41972,-0.18906 10.89743,-28.360342 27.56528,-62.648054 0,0 0,-5e-6 0,-5e-6 0.51268,-1.0545876 1.03017,-2.1144807 1.55254,-3.179831 17.502607,-35.695474 33.465947,-63.718221 33.898784,-63.493146 z"
       id="path146"
       inkscape:connector-curvature="0"
       inkscape:path-effect="#path-effect148;#path-effect150"
       inkscape:original-d="m -75.619926,-56.440958 c -11.872428,23.014496 -23.745121,45.663943 -35.618084,68.496309 -9.31536,20.274924 -18.26541,40.549551 -27.39852,60.824723" />
    <path
       style="fill:#000000;stroke:none;stroke-width:0.26458332px;stroke-linecap:butt;stroke-linejoin:miter;stroke-opacity:1"
       d="m -55.892988,-96.442804 c 0.200688,-0.153303 7.087315,7.866757 17.470484,21.528508 9.874467,12.992422 24.804175,33.579388 34.8849985,56.890367 0.312959,0.723688 0.6204527,1.447658 0.9224691,2.171983 12.2079084,29.349959 15.3134824,58.971005 16.3066224,74.789043 0.387267,5.985634 0.518924,10.617267 0.0047,13.140176 -0.09374,0.722855 -0.305782,1.260628 -0.762061,1.5293 0,0 -1e-6,10e-7 -1e-6,10e-7 -0.754302,0.330254 -0.822944,-0.346312 -0.878871,-0.178532 0.01871,-0.05613 0.470507,0.162612 0.691023,-0.115682 0,0 0,-10e-7 0,-10e-7 0.322481,-0.232072 0.243926,-0.555633 0.362489,-1.319005 0.203056,-2.498 -0.234193,-6.872341 -0.86305,-12.934317 -1.656081,-15.613833 -5.2840664,-45.100565 -17.3024091,-73.893661 -0.2972473,-0.713903 -0.5997677,-1.427645 -0.9075554,-2.141321 -9.8608715,-22.864693 -24.5431705,-43.674685 -33.9683035,-56.823684 -9.977641,-13.919802 -16.33787,-22.354927 -15.960527,-22.643175 z"
       id="path162"
       inkscape:connector-curvature="0"
       inkscape:path-effect="#path-effect164;#path-effect166"
       inkscape:original-d="m -55.892988,-96.442804 c 20.457829,26.302319 40.184766,52.604902 60.2767517,78.907749 3.6534066,30.686127 7.3065373,61.372428 10.9594093,92.05904 -1.095684,-0.365582 -2.191617,-0.730893 -3.287823,-1.095941" />
    <path
       inkscape:original-d="m 212.02374,-199.51541 c -5.54338,-6.04788 -11.08703,-12.0955 -16.63095,-18.14286 -5.54392,-6.04735 11.08757,-7.05582 16.63095,-10.58333 5.54339,-3.52751 8.06376,11.08704 12.09524,16.63095"
       inkscape:path-effect="#path-effect180;#path-effect182"
       inkscape:connector-curvature="0"
       id="path178"
       d="m 212.02374,-199.51541 c 0.001,0.006 -2.59047,1.62182 -7.48563,0.21416 0,0 0,0 0,0 -2.10613,-0.60639 -4.52372,-1.83914 -6.60248,-3.99401 -1.68043,-1.74345 -3.09835,-4.06656 -3.81317,-6.82511 -0.63235,-2.44525 -0.69009,-5.17926 0.0201,-7.87659 0.68001,-2.57026 2.05226,-5.02714 4.02979,-7.03473 0.84635,-0.85922 1.78101,-1.61259 2.78152,-2.24533 3.54006,-2.23056 7.66587,-2.837 11.2764,-2.16959 4.59898,0.85756 8.04026,3.62709 9.99438,6.49988 0,1e-5 1e-5,1e-5 1e-5,1e-5 4.71657,6.95486 1.40901,11.26599 1.89429,11.33608 -0.37175,-0.0537 0.60058,-5.07437 -3.44011,-10.21185 0,0 -1e-5,0 -1e-5,0 -1.86642,-2.3809 -4.97809,-4.61757 -8.86168,-5.2141 -3.04222,-0.47312 -6.53644,0.11384 -9.44986,1.98395 -0.82594,0.52784 -1.60229,1.15864 -2.30911,1.87728 -1.65073,1.67831 -2.82358,3.73199 -3.41522,5.85578 -0.6267,2.23759 -0.63541,4.55023 -0.16747,6.62664 0.52698,2.34469 1.65275,4.3924 3.0171,5.97044 1.68791,1.95426 3.7277,3.20051 5.55197,3.92104 0,0 0,1e-5 0,1e-5 4.04747,1.60034 6.9267,0.9939 6.97915,1.28604 z"
       style="fill:#000000;stroke:none;stroke-width:0.26458332px;stroke-linecap:butt;stroke-linejoin:miter;stroke-opacity:1" />
    <path
       inkscape:original-d="m 109.44584,-89.820987 c 20.94563,-14.394983 41.89107,-28.789643 62.83634,-43.183963 13.66108,-21.81989 27.32235,-43.64002 40.98326,-65.45954"
       inkscape:path-effect="#path-effect186;#path-effect188"
       inkscape:connector-curvature="0"
       id="path184"
       d="m 109.44584,-89.820987 c -0.24793,-0.360757 6.64806,-5.27966 17.67508,-13.429873 10.4469,-7.72144 26.7255,-19.88502 40.5628,-34.38075 3e-5,-4e-5 0.22664,-0.23741 0.22667,-0.23744 13.86923,-14.55303 25.35698,-31.44616 32.6422,-42.26517 7.69471,-11.42714 12.34188,-18.56253 12.71285,-18.33027 0.24648,0.15432 -3.83131,7.63704 -11.14031,19.34987 -6.98608,11.19535 -18.1421,28.18944 -32.29881,43.06988 2e-5,-2e-5 -0.22977,0.24107 -0.22974,0.24104 -14.1536,14.79572 -30.55692,26.63872 -41.39038,34.07614 -11.33021,7.77844 -18.59679,12.144587 -18.76036,11.906573 z"
       style="fill:#000000;stroke:none;stroke-width:0.26458332px;stroke-linecap:butt;stroke-linejoin:miter;stroke-opacity:1" />
    <path
       style="fill:#000000;stroke:none;stroke-width:0.26458332px;stroke-linecap:butt;stroke-linejoin:miter;stroke-opacity:1"
       d="m 224.11898,-211.61064 c -0.27345,-0.34182 6.24745,-5.74812 16.65404,-14.67695 9.85911,-8.45909 25.21224,-21.77176 37.96128,-37.23329 3e-5,-4e-5 0.20882,-0.25323 0.20884,-0.25326 12.77674,-15.521 23.00847,-33.20313 29.48948,-44.52223 6.84529,-11.95533 10.96248,-19.40911 11.34933,-19.20437 0.25703,0.13602 -3.26708,7.8949 -9.70695,20.10719 -6.15536,11.67274 -16.04891,29.43149 -29.08861,45.2999 3e-5,-3e-5 -0.21167,0.2571 -0.21164,0.25707 -13.04275,15.78368 -28.54352,28.78566 -38.80878,36.98953 -10.73595,8.58004 -17.66658,13.46193 -17.84699,13.23641 z"
       id="path190"
       inkscape:connector-curvature="0"
       inkscape:path-effect="#path-effect192;#path-effect194"
       inkscape:original-d="m 224.11898,-211.61064 c 19.84594,-15.87682 39.69173,-31.7533 59.53736,-47.62943 12.04186,-22.7536 24.08389,-45.50746 36.12561,-68.26067" />
    <path
       inkscape:original-d="m 227.40775,-151.78783 c 5.84528,30.68608 11.6903,61.372439 17.53505,92.059049 -17.71756,43.472354 -35.43515,86.944383 -53.15313,130.416973"
       inkscape:path-effect="#path-effect198;#path-effect200"
       inkscape:connector-curvature="0"
       id="path196"
       d="m 227.40775,-151.78783 c -0.36516,0.0696 5.53144,17.96978 8.3604,46.73277 1.46903,14.946533 1.71261,32.82267 -1.31284,51.9263 -0.82125,5.175067 -1.84381,10.395406 -3.05524,15.686226 -3.62196,15.818666 -8.66426,31.0237654 -13.36247,44.1247911 -6.57934,18.3549439 -13.87028,35.9615979 -18.29332,46.3886259 -4.76607,11.235687 -7.71707,17.714133 -7.95461,17.617317 -0.26473,-0.107891 2.21941,-6.778165 6.5944,-18.16689 3.82502,-9.957084 11.20974,-28.911712 17.36557,-46.6461997 4.54158,-13.0900097 9.49134,-28.2694343 13.07346,-43.9078053 1.20006,-5.239043 2.2189,-10.399242 3.04443,-15.510362 3.04602,-18.820002 2.97485,-36.49085 1.76946,-51.320593 -2.31576,-28.51351 -6.66103,-46.84193 -6.22924,-46.92418 z"
       style="fill:#000000;stroke:none;stroke-width:0.26458332px;stroke-linecap:butt;stroke-linejoin:miter;stroke-opacity:1" />
    <path
       inkscape:original-d="M 255.35424,-58.63284 C 243.48181,-35.618344 231.60912,-12.968897 219.73616,9.8634691 210.4208,30.138393 201.47075,50.41302 192.33764,70.688192"
       inkscape:path-effect="#path-effect204;#path-effect206"
       inkscape:connector-curvature="0"
       id="path202"
       d="m 255.35424,-58.63284 c 0.33128,0.172266 -3.11065,7.465026 -8.88719,19.136817 -5.77623,11.671157 -13.90238,27.708975 -22.636,45.5211384 0.005,-0.00938 -1.55703,3.1819173 -1.55243,3.1725358 0,0 0,5.3e-6 0,5.3e-6 -16.68864,34.1737925 -29.29504,61.7815075 -29.94098,61.4905415 -0.41972,-0.18906 10.89743,-28.360343 27.56528,-62.6480558 0,10e-8 0,-5.3e-6 0,-5.3e-6 0.51268,-1.0545868 1.03017,-2.1144796 1.55254,-3.1798295 17.5026,-35.6954744 33.46594,-63.7182224 33.89878,-63.4931474 z"
       style="fill:#000000;stroke:none;stroke-width:0.26458332px;stroke-linecap:butt;stroke-linejoin:miter;stroke-opacity:1" />
    <path
       inkscape:original-d="m 275.08118,-98.634685 c 20.45783,26.302318 40.18476,52.604901 60.27675,78.907748 3.65341,30.686127 7.30654,61.372428 10.95941,92.05904 -1.09568,-0.365582 -2.19162,-0.730893 -3.28782,-1.095941"
       inkscape:path-effect="#path-effect210;#path-effect212"
       inkscape:connector-curvature="0"
       id="path208"
       d="m 275.08118,-98.634685 c 0.20069,-0.153303 7.08732,7.866757 17.47048,21.528508 9.87447,12.992422 24.80418,33.579389 34.885,56.890367 0.31296,0.723688 0.62045,1.447656 0.92247,2.171981 12.20791,29.349957 15.31348,58.971009 16.30662,74.789044 0.38727,5.985633 0.51893,10.617267 0.005,13.140176 -0.0937,0.722855 -0.30579,1.260627 -0.76206,1.5293 0,0 -10e-6,0 -10e-6,0 -0.7543,0.330256 -0.82294,-0.346314 -0.87887,-0.178532 0.0187,-0.05613 0.47051,0.162613 0.69103,-0.115682 0,0 0,0 0,0 0.32248,-0.232072 0.24392,-0.555634 0.36249,-1.319005 0.20305,-2.498001 -0.2342,-6.872341 -0.86305,-12.934316 -1.65609,-15.613831 -5.28407,-45.100569 -17.30242,-73.893663 -0.29724,-0.713902 -0.59976,-1.427643 -0.90755,-2.141319 -9.86087,-22.864692 -24.54317,-43.674684 -33.9683,-56.823684 -9.97764,-13.919802 -16.33787,-22.354927 -15.96053,-22.643175 z"
       style="fill:#000000;stroke:none;stroke-width:0.26458332px;stroke-linecap:butt;stroke-linejoin:miter;stroke-opacity:1" />
    <path
       style="fill:#000000;stroke:none;stroke-width:0.26458332px;stroke-linecap:butt;stroke-linejoin:miter;stroke-opacity:1"
       d="m -12.05535,-324.39853 c 0,-0.73025 11.78355808,-1.32292 26.302585,-1.32292 14.519027,0 26.302585,0.59267 26.302585,1.32292 0,0.73025 -11.783558,1.32292 -26.302585,1.32292 -14.51902692,0 -26.302585,-0.59267 -26.302585,-1.32292 z"
       id="path214"
       inkscape:connector-curvature="0"
       inkscape:path-effect="#path-effect216"
       inkscape:original-d="M -12.05535,-324.39853 H 40.549816" />
    <path
       style="fill:#000000;stroke:none;stroke-width:0.26458332px;stroke-linecap:butt;stroke-linejoin:miter;stroke-opacity:1"
       d="m 13.151291,-322.20664 c 0.717152,0 1.212222,14.06197 1.195398,32.16538 0,0 0,0 0,0 -0.568241,0.80592 -1.144697,1.62105 -1.728237,2.44361 -11.257756,15.86912 -20.7708172,28.29904 -21.3859806,27.85964 -0.6155947,-0.43971 7.96778351,-13.34296 19.0059316,-28.68901 0.577015,-0.80221 1.149902,-1.59616 1.71749,-2.3804 0,0 0,-1e-5 0,-1e-5 -0.01668,-17.48519 0.478099,-31.39921 1.195398,-31.39921 z"
       id="path218"
       inkscape:connector-curvature="0"
       inkscape:path-effect="#path-effect220"
       inkscape:original-d="m 13.151291,-322.20664 v 31.7823 l -21.9188187,30.68633" />
    <path
       style="fill:#000000;stroke:none;stroke-width:0.26458332px;stroke-linecap:butt;stroke-linejoin:miter;stroke-opacity:1"
       d="m 11.955893,-290.80743 c 0.539856,-0.49175 6.646568,5.33222 13.631053,12.99995 6.984485,7.66772 12.214909,14.2899 11.675052,14.78166 -0.539856,0.49175 -6.646568,-5.33223 -13.631053,-12.99995 -6.984485,-7.66773 -12.214908,-14.28991 -11.675052,-14.78166 z"
       id="path222"
       inkscape:connector-curvature="0"
       inkscape:path-effect="#path-effect224"
       inkscape:original-d="m 11.955893,-290.80743 25.3061,27.7816" />
    <path
       style="fill:#000000;stroke:none;stroke-width:0.26458332px;stroke-linecap:butt;stroke-linejoin:miter;stroke-opacity:1"
       d="m -1.095941,-271.79336 c 0,-0.73025 6.3827613,-1.32292 14.247235,-1.32292 7.864474,0 14.247235,0.59267 14.247235,1.32292 0,0.73025 -6.382761,1.32292 -14.247235,1.32292 -7.8644737,0 -14.247235,-0.59267 -14.247235,-1.32292 z"
       id="path230"
       inkscape:connector-curvature="0"
       inkscape:path-effect="#path-effect232"
       inkscape:original-d="M -1.095941,-271.79336 H 27.398525" />
    <path
       style="fill:#000000;stroke:none;stroke-width:0.26458332px;stroke-linecap:butt;stroke-linejoin:miter;stroke-opacity:1"
       d="m -8.7675274,-213.70849 c -0.8641251,-0.0262 -0.3409765,-15.81728 0.8972362,-36.65571 0,0 2e-7,0 2e-7,0 -3.155917,-2.91969 7.84005417,7.25454 4.6841374,4.33486 17.4623366,16.17291 31.2447786,29.44758 30.5846826,30.12897 -0.66317,0.68457 -14.228541,-12.54624 -30.473265,-29.02089 -0.6671403,-0.67658 -3.7310057,-3.78701 -4.398146,-4.4636 0,0 0,1e-5 0,1e-5 -0.007,20.07822 -0.4252134,35.70271 -1.2946454,35.67636 z"
       id="path234"
       inkscape:connector-curvature="0"
       inkscape:path-effect="#path-effect236"
       inkscape:original-d="m -8.7675274,-213.70849 1.0959409,-36.16604 35.0701105,33.97416" />
    <path
       style="fill:#000000;stroke:none;stroke-width:0.26458332px;stroke-linecap:butt;stroke-linejoin:miter;stroke-opacity:1"
       d="m 27.398525,-253.16236 c 0.73025,0 1.322917,8.34669 1.322917,18.631 0,10.2843 -0.592667,18.63099 -1.322917,18.63099 -0.73025,0 -1.322917,-8.34669 -1.322917,-18.63099 0,-10.28431 0.592667,-18.631 1.322917,-18.631 z"
       id="path238"
       inkscape:connector-curvature="0"
       inkscape:path-effect="#path-effect240"
       inkscape:original-d="m 27.398525,-253.16236 v 37.26199" />
    <path
       style="fill:#000000;stroke:none;stroke-width:0.26458332px;stroke-linecap:butt;stroke-linejoin:miter;stroke-opacity:1"
       d="m 30.686346,-176.44649 c 0,0.71126 -17.356259,0.76236 -42.044849,0.14605 -0.206165,0.17455 17.7478509,-15.01186 17.5416869,-14.83731 0.312706,-0.26426 21.0655111,-17.78179 21.3782171,-18.04605 -21.3700941,0.59586 -36.3289311,0.51151 -36.3289311,-0.14092 0,-0.6499 15.043882,-0.73931 37.0991171,-0.14092 0.286739,-0.24289 -21.2945141,18.01541 -21.2945141,18.01541 -0.217913,0.18415 -17.3794739,14.67354 -17.5973879,14.85769 23.991119,-0.61357 41.246661,-0.56795 41.246661,0.14605 z"
       id="path246"
       inkscape:connector-curvature="0"
       sodipodi:nodetypes="scccscccs" />
    <path
       style="fill:#000000;stroke:none;stroke-width:0.26458332px;stroke-linecap:butt;stroke-linejoin:miter;stroke-opacity:1"
       d="m 320.01475,-324.39853 c 0.84189,-0.45922 9.52942,15.6574 19.7344,35.51928 -7.4e-4,0.001 0.12702,-0.23366 0.12628,-0.23231 10.72623,-19.72999 19.85513,-35.76716 20.68913,-35.28697 0.82864,0.47709 -8.56923,16.64283 -20.68922,36.58072 -7.2e-4,0.001 -0.14039,0.23093 -0.14111,0.2321 -11.60276,-20.10592 -20.55589,-36.3566 -19.71948,-36.81282 z"
       id="path251"
       inkscape:connector-curvature="0"
       inkscape:path-effect="#path-effect253"
       inkscape:original-d="m 320.01475,-324.39853 19.72694,36.16605 20.82287,-36.16605" />
    <path
       style="fill:#000000;stroke:none;stroke-width:0.26458332px;stroke-linecap:butt;stroke-linejoin:miter;stroke-opacity:1"
       d="m 363.8524,-283.8487 c -0.0161,0.6906 -19.75191,0.44322 -46.50934,-0.48092 0,0 -10e-6,0 -10e-6,0 0.18124,6.22683 0.36476,12.84536 0.5436,19.68718 0.21037,8.04796 0.39672,15.73352 0.55587,22.90011 0,0 0,0 0,0 25.05603,-0.2558 43.218,-0.016 43.218,0.63532 0,0.64959 -18.31997,0.89283 -44.45727,0.63532 0,0 -1e-5,0 -1e-5,0 -0.20817,-7.52625 -0.41798,-15.68697 -0.62256,-24.23707 -0.17393,-7.26905 -0.33151,-14.29432 -0.46985,-20.85094 0,0 0,0 0,0 27.85741,0.34392 47.75758,1.02247 47.74157,1.711 z"
       id="path255"
       inkscape:connector-curvature="0"
       inkscape:path-effect="#path-effect257"
       inkscape:original-d="m 363.8524,-283.8487 -47.12546,-1.09596 1.09594,43.83765 h 43.83764" />
    <path
       style="fill:#000000;stroke:none;stroke-width:0.21960241px;stroke-linecap:butt;stroke-linejoin:miter;stroke-opacity:1"
       d="m 324.39851,-263.02582 c 0.0199,-0.61634 7.64623,-0.87106 17.02311,-0.56858 9.37687,0.30248 16.97095,1.04819 16.95107,1.66452 -0.0199,0.61634 -7.64624,0.87106 -17.02311,0.56858 -9.37687,-0.30248 -16.97095,-1.04818 -16.95107,-1.66452 z"
       id="path263"
       inkscape:connector-curvature="0"
       inkscape:path-effect="#path-effect265"
       inkscape:original-d="m 324.39851,-263.02582 33.97417,1.09594" />
    <path
       style="fill:#000000;stroke:none;stroke-width:0.26458332px;stroke-linecap:butt;stroke-linejoin:miter;stroke-opacity:1"
       d="m 323.97286,-235.01975 c 0.7136,0.15505 -1.02336,10.94018 -3.87714,24.07394 -2.85378,13.13376 -5.74904,23.6672 -6.46264,23.51214 -0.7136,-0.15505 1.02336,-10.94018 3.87714,-24.07393 2.85378,-13.13376 5.74904,-23.6672 6.46264,-23.51215 z"
       id="path267"
       inkscape:connector-curvature="0"
       inkscape:path-effect="#path-effect269"
       inkscape:original-d="m 323.97286,-235.01975 -10.33978,47.58608" />
    <path
       style="fill:#000000;stroke:none;stroke-width:0.26458332px;stroke-linecap:butt;stroke-linejoin:miter;stroke-opacity:1"
       d="m 323.97287,-235.01975 c 0.002,-0.008 0.008,-0.0155 0.0177,-0.0219 0.009,-0.006 0.0222,-0.0112 0.0385,-0.0155 0.0324,-0.008 0.0784,-0.0133 0.13796,-0.0144 0,0 0,0 0,0 l 0,0 c 0.11752,-0.002 0.28681,0.01 0.5068,0.0361 0,0 0,0 0,0 l 0,0 c 0.42683,0.0515 1.03932,0.15726 1.82807,0.32263 l 0,0 c 1.43865,0.3016 3.52501,0.81407 6.04655,1.5704 l 0,0 c 2.15255,0.64548 4.80026,1.52043 7.58954,2.65931 v 0 c 2.2183,0.90401 4.75961,2.05692 7.18924,3.59674 l 0,0 c 1.70935,1.05855 3.63035,2.47234 4.91228,4.56993 l 0,0 c 0.48864,0.80517 0.83342,1.77126 0.8862,2.83765 l 0,0 c 0.0267,1.08117 -0.26689,2.12437 -0.79317,3.02001 l 0,0 -1e-5,1e-5 0,0 c -0.6695,1.13553 -1.57316,2.05059 -2.54213,2.8048 l 0,0 c -1.33999,1.05903 -2.80883,1.90541 -4.33278,2.65123 v 0 c -4.68107,2.29792 -9.67196,3.77192 -15.06541,5.12206 -1.51204,0.38344 -3.05956,0.77308 -4.57645,1.189 -3.20832,0.8797 -6.21324,1.85963 -8.99419,3.23161 -1.04616,0.53363 -1.98874,1.02248 -2.6216,1.69986 l 0,0 -1e-5,0 0,0 c -0.18685,0.20678 -0.33369,0.3749 -0.38191,0.5174 -0.0321,0.09 -0.0558,0.1677 -0.0423,0.1964 -0.01,0.043 0.0448,0.13615 0.11677,0.25953 0.10306,0.16292 0.28823,0.32843 0.51115,0.51259 0.64348,0.5213 1.48695,0.90125 2.37564,1.27492 l 0,0 c 2.75113,1.13104 5.77653,1.79781 8.57877,2.38359 l 0,0 c 8.19021,1.70006 17.06904,2.70558 22.33965,3.33083 l 0,0 c 3.66856,0.43484 6.45582,0.74794 8.55562,1.01792 l 0,0 c 1.08664,0.13971 1.93262,0.261 2.507,0.36549 l 0,0 c 0.29518,0.0537 0.52034,0.10323 0.67161,0.14867 l 0,0 c 0,0 0,0 0,0 0.0765,0.023 0.13432,0.045 0.17289,0.066 l 0,0 c 0,0 0,0 0,0 0.0184,0.0296 0.0327,0.0449 0.0424,0.0528 0.01,0.008 0.0149,0.008 0.0153,0.008 0,0 0,0 0,0 0,0 0,0 0,0 10e-6,0 10e-6,0 10e-6,0 0,0 0,0 -10e-6,0 0,0 0,0 0,0 0,0 0,0 0,0 -4e-4,-1e-5 -0.006,0 -0.0161,0.007 -0.0106,0.007 -0.0264,0.0205 -0.0479,0.0479 0,0 0,0 0,0 l 0,0 c -0.0407,0.0167 -0.10066,0.0321 -0.17952,0.0463 0,0 0,0 0,0 l 0,0 c -0.15593,0.0282 -0.3852,0.0514 -0.68547,0.0694 l 0,0 c -0.58615,0.0352 -1.43778,0.0503 -2.53819,0.0417 l 0,0 c -2.05188,-0.0161 -5.00315,-0.11471 -8.63524,-0.33589 l 0,0 c -5.48115,-0.33304 -14.10217,-0.97876 -22.65432,-2.56093 l 0,0 c -2.84799,-0.52256 -6.01581,-1.17179 -9.05881,-2.35973 l 0,0 c -0.97679,-0.37296 -2.02586,-0.85434 -3.00459,-1.59102 -0.35683,-0.26543 -0.71829,-0.60879 -1.04136,-1.04957 l 0,0 c -0.27398,-0.36678 -0.48064,-0.8359 -0.57145,-1.39089 -0.066,-0.55792 0.0138,-1.08549 0.21323,-1.54388 0.24221,-0.54553 0.56087,-0.98079 0.8967,-1.31435 l 0,0 1e-5,-1e-5 0,0 c 1.01788,-1.02916 2.1989,-1.70503 3.3227,-2.24449 2.99899,-1.48632 6.162,-2.54015 9.45108,-3.44486 1.55807,-0.42857 3.12111,-0.8175 4.63884,-1.19149 5.34545,-1.33459 10.15771,-2.69597 14.61164,-4.82107 l 0,0 c 1.44054,-0.68954 2.76989,-1.41827 3.92779,-2.31068 l 0,0 c 0.82799,-0.64965 1.54687,-1.31728 1.99669,-2.08721 l 0,0 10e-6,-1e-5 0,0 c 0.33346,-0.56794 0.5411,-1.18387 0.52159,-1.75447 l 0,0 c 0.007,-0.57701 -0.2142,-1.19393 -0.52541,-1.77172 l 0,0 c -0.86626,-1.61621 -2.53198,-2.86789 -4.09938,-3.96298 l 0,0 c -2.21704,-1.51413 -4.63047,-2.72 -6.75584,-3.70433 -2.6569,-1.2285 -5.24223,-2.24722 -7.30752,-3.02905 l 0,0 c -2.34617,-0.88797 -4.53737,-1.65757 -5.8211,-2.12435 l 0,0 c -0.75028,-0.27281 -1.33395,-0.49231 -1.72552,-0.65813 l 0,0 c 0,0 0,0 0,0 -0.20279,-0.0859 -0.35621,-0.1582 -0.45721,-0.21677 l 0,0 c 0,0 0,0 0,0 -0.0513,-0.0298 -0.0893,-0.0561 -0.11363,-0.0789 -0.0122,-0.0115 -0.021,-0.0221 -0.0263,-0.0319 -0.005,-0.0102 -0.007,-0.0193 -0.005,-0.0276 z"
       id="path311"
       inkscape:connector-curvature="0"
       inkscape:path-effect="#path-effect313"
       inkscape:original-d="m 323.97286,-235.01975 c 0,0 58.70451,14.70785 6.09933,27.85915 -52.60517,13.15129 29.59042,17.53505 29.59042,17.53505" />
    <path
       inkscape:original-d="m 354.81478,-177.2034 -36.09622,-0.90752 0.83944,36.30018 h 33.57789"
       inkscape:path-effect="#path-effect317"
       inkscape:connector-curvature="0"
       id="path315"
       d="m 354.81478,-177.2034 c -0.0136,0.54076 -15.07214,0.3338 -35.6091,-0.41942 0,0 0,0 0,0 0.14164,5.16985 0.28481,10.6965 0.42332,16.42192 0.16113,6.66015 0.30184,13.00581 0.4195,18.88819 19.22723,-0.201 33.0874,-0.008 33.0874,0.50197 0,0.50898 -13.98174,0.70431 -34.0684,0.50197 -0.1608,-6.15904 -0.32228,-12.88116 -0.47842,-19.94104 -0.13424,-6.06932 -0.25422,-11.92188 -0.35764,-17.34921 0,0 0,0 0,0 21.41304,0.29985 36.59689,0.85649 36.58334,1.39562 z"
       style="fill:#000000;stroke:none;stroke-width:0.21071543px;stroke-linecap:butt;stroke-linejoin:miter;stroke-opacity:1" />
    <path
       inkscape:original-d="m 324.63031,-161.34893 26.02286,0.90751"
       inkscape:path-effect="#path-effect321"
       inkscape:connector-curvature="0"
       id="path319"
       d="m 324.63031,-161.34893 c 0.0171,-0.49118 5.86015,-0.68654 13.04246,-0.43607 7.18231,0.25048 12.99753,0.8524 12.9804,1.34358 -0.0171,0.49118 -5.86015,0.68654 -13.04246,0.43607 -7.18231,-0.25048 -12.99753,-0.8524 -12.9804,-1.34358 z"
       style="fill:#000000;stroke:none;stroke-width:0.17489241px;stroke-linecap:butt;stroke-linejoin:miter;stroke-opacity:1" />
    <path
       inkscape:original-d="m 319.46207,-70.106007 1.09594,-36.166033 35.07011,33.974153"
       inkscape:path-effect="#path-effect325"
       inkscape:connector-curvature="0"
       id="path323"
       d="m 319.46207,-70.106007 c -0.86413,-0.02619 -0.34098,-15.817275 0.89724,-36.655703 0,0 0,0 0,0 -3.15593,-2.91969 7.84006,7.254548 4.68413,4.33486 17.46234,16.172903 31.24478,29.447579 30.58469,30.128969 -0.66317,0.684563 -14.22854,-12.546243 -30.47327,-29.020879 -0.66714,-0.67659 -3.731,-3.78702 -4.39815,-4.46361 0,0 0,1e-5 0,1e-5 -0.007,20.078214 -0.42521,35.702699 -1.29464,35.676353 z"
       style="fill:#000000;stroke:none;stroke-width:0.26458332px;stroke-linecap:butt;stroke-linejoin:miter;stroke-opacity:1" />
    <path
       inkscape:original-d="m 355.62812,-109.55987 v 37.261983"
       inkscape:path-effect="#path-effect329"
       inkscape:connector-curvature="0"
       id="path327"
       d="m 355.62812,-109.55987 c 0.73025,0 1.32292,8.34669 1.32292,18.630995 0,10.284309 -0.59267,18.630995 -1.32292,18.630995 -0.73025,0 -1.32292,-8.346686 -1.32292,-18.630995 0,-10.284305 0.59267,-18.630995 1.32292,-18.630995 z"
       style="fill:#000000;stroke:none;stroke-width:0.26458332px;stroke-linecap:butt;stroke-linejoin:miter;stroke-opacity:1" />
    <path
       style="fill:#000000;stroke:none;stroke-width:0.26458332px;stroke-linecap:butt;stroke-linejoin:miter;stroke-opacity:1"
       d="m 337.97849,-135.28349 c 0.73014,0.0127 1.19496,7.36663 1.03755,16.41501 -0.15742,9.04838 -0.87775,16.38169 -1.60789,16.36899 -0.73014,-0.0127 -1.19496,-7.36663 -1.03755,-16.41501 0.15742,-9.04839 0.87775,-16.38169 1.60789,-16.36899 z"
       id="path343"
       inkscape:connector-curvature="0"
       inkscape:path-effect="#path-effect345"
       inkscape:original-d="m 337.97849,-135.28349 -0.57034,32.78399" />
  </g>
</svg>
